<mxfile host="app.diagrams.net" agent="Mozilla/5.0 (X11; Linux x86_64) AppleWebKit/537.36 (KHTML, like Gecko) Chrome/124.0.0.0 Safari/537.36" version="26.2.9">
  <diagram name="Page-1" id="PQr9PqsGU79pjMDatXMm">
    <mxGraphModel dx="1980" dy="1765" grid="1" gridSize="10" guides="1" tooltips="1" connect="1" arrows="1" fold="1" page="1" pageScale="1" pageWidth="850" pageHeight="1100" math="0" shadow="0">
      <root>
        <mxCell id="0" />
        <mxCell id="1" parent="0" />
        <mxCell id="ajc7hb3r5Duzxjk8FhJC-6" value="" style="rounded=0;whiteSpace=wrap;html=1;" vertex="1" parent="1">
          <mxGeometry x="390" y="150" width="1360" height="460" as="geometry" />
        </mxCell>
        <mxCell id="ajc7hb3r5Duzxjk8FhJC-5" style="edgeStyle=orthogonalEdgeStyle;rounded=0;orthogonalLoop=1;jettySize=auto;html=1;entryX=0;entryY=0.5;entryDx=0;entryDy=0;" edge="1" parent="1" source="ajc7hb3r5Duzxjk8FhJC-1" target="ajc7hb3r5Duzxjk8FhJC-2">
          <mxGeometry relative="1" as="geometry" />
        </mxCell>
        <mxCell id="ajc7hb3r5Duzxjk8FhJC-77" style="edgeStyle=orthogonalEdgeStyle;rounded=0;orthogonalLoop=1;jettySize=auto;html=1;entryX=0.5;entryY=1;entryDx=0;entryDy=0;" edge="1" parent="1" source="ajc7hb3r5Duzxjk8FhJC-1" target="ajc7hb3r5Duzxjk8FhJC-76">
          <mxGeometry relative="1" as="geometry" />
        </mxCell>
        <mxCell id="ajc7hb3r5Duzxjk8FhJC-1" value="New App (REST)" style="rounded=0;whiteSpace=wrap;html=1;" vertex="1" parent="1">
          <mxGeometry x="130" y="130" width="120" height="60" as="geometry" />
        </mxCell>
        <mxCell id="ajc7hb3r5Duzxjk8FhJC-11" style="edgeStyle=orthogonalEdgeStyle;rounded=0;orthogonalLoop=1;jettySize=auto;html=1;entryX=0;entryY=0.5;entryDx=0;entryDy=0;" edge="1" parent="1" source="ajc7hb3r5Duzxjk8FhJC-2" target="ajc7hb3r5Duzxjk8FhJC-20">
          <mxGeometry relative="1" as="geometry">
            <mxPoint x="620" y="190" as="targetPoint" />
          </mxGeometry>
        </mxCell>
        <mxCell id="ajc7hb3r5Duzxjk8FhJC-2" value="CreateAuthFactory()&lt;br&gt;return IAuthChecker" style="rounded=0;whiteSpace=wrap;html=1;" vertex="1" parent="1">
          <mxGeometry x="425" y="200" width="120" height="60" as="geometry" />
        </mxCell>
        <mxCell id="ajc7hb3r5Duzxjk8FhJC-4" style="edgeStyle=orthogonalEdgeStyle;rounded=0;orthogonalLoop=1;jettySize=auto;html=1;entryX=0;entryY=0.5;entryDx=0;entryDy=0;" edge="1" parent="1" source="ajc7hb3r5Duzxjk8FhJC-3" target="ajc7hb3r5Duzxjk8FhJC-1">
          <mxGeometry relative="1" as="geometry" />
        </mxCell>
        <mxCell id="ajc7hb3r5Duzxjk8FhJC-100" style="edgeStyle=orthogonalEdgeStyle;rounded=0;orthogonalLoop=1;jettySize=auto;html=1;entryX=0;entryY=0.5;entryDx=0;entryDy=0;" edge="1" parent="1" source="ajc7hb3r5Duzxjk8FhJC-3" target="ajc7hb3r5Duzxjk8FhJC-43">
          <mxGeometry relative="1" as="geometry" />
        </mxCell>
        <mxCell id="ajc7hb3r5Duzxjk8FhJC-3" value="server&lt;div&gt;&lt;br&gt;&lt;/div&gt;" style="whiteSpace=wrap;html=1;" vertex="1" parent="1">
          <mxGeometry x="-260" y="170" width="120" height="60" as="geometry" />
        </mxCell>
        <mxCell id="ajc7hb3r5Duzxjk8FhJC-7" value="authFactory" style="text;html=1;align=center;verticalAlign=middle;whiteSpace=wrap;rounded=0;" vertex="1" parent="1">
          <mxGeometry x="400" y="160" width="60" height="30" as="geometry" />
        </mxCell>
        <mxCell id="ajc7hb3r5Duzxjk8FhJC-9" style="edgeStyle=orthogonalEdgeStyle;rounded=0;orthogonalLoop=1;jettySize=auto;html=1;exitX=0.5;exitY=1;exitDx=0;exitDy=0;entryX=0.5;entryY=0.833;entryDx=0;entryDy=0;entryPerimeter=0;" edge="1" parent="1" source="ajc7hb3r5Duzxjk8FhJC-2" target="ajc7hb3r5Duzxjk8FhJC-2">
          <mxGeometry relative="1" as="geometry" />
        </mxCell>
        <mxCell id="ajc7hb3r5Duzxjk8FhJC-13" style="edgeStyle=orthogonalEdgeStyle;rounded=0;orthogonalLoop=1;jettySize=auto;html=1;entryX=0.5;entryY=1;entryDx=0;entryDy=0;" edge="1" parent="1" source="ajc7hb3r5Duzxjk8FhJC-14" target="ajc7hb3r5Duzxjk8FhJC-20">
          <mxGeometry relative="1" as="geometry">
            <mxPoint x="680" y="250" as="sourcePoint" />
            <mxPoint x="680" y="220" as="targetPoint" />
          </mxGeometry>
        </mxCell>
        <mxCell id="ajc7hb3r5Duzxjk8FhJC-14" value="AuthService" style="swimlane;fontStyle=1;align=center;verticalAlign=top;childLayout=stackLayout;horizontal=1;startSize=26;horizontalStack=0;resizeParent=1;resizeParentMax=0;resizeLast=0;collapsible=1;marginBottom=0;whiteSpace=wrap;html=1;" vertex="1" parent="1">
          <mxGeometry x="650" y="290" width="320" height="120" as="geometry" />
        </mxCell>
        <mxCell id="ajc7hb3r5Duzxjk8FhJC-15" value="+ jwtService: *JwtService" style="text;strokeColor=none;fillColor=none;align=left;verticalAlign=top;spacingLeft=4;spacingRight=4;overflow=hidden;rotatable=0;points=[[0,0.5],[1,0.5]];portConstraint=eastwest;whiteSpace=wrap;html=1;" vertex="1" parent="ajc7hb3r5Duzxjk8FhJC-14">
          <mxGeometry y="26" width="320" height="26" as="geometry" />
        </mxCell>
        <mxCell id="ajc7hb3r5Duzxjk8FhJC-18" value="&lt;div style=&quot;color: rgb(201, 209, 217); background-color: rgb(13, 17, 23); font-family: &amp;quot;Droid Sans Mono&amp;quot;, &amp;quot;monospace&amp;quot;, monospace; line-height: 19px; white-space: pre;&quot;&gt;&lt;font style=&quot;font-size: 10px;&quot;&gt;userRepository &lt;span style=&quot;color: rgb(253, 172, 84);&quot;&gt;user&lt;/span&gt;.&lt;span style=&quot;color: rgb(253, 172, 84);&quot;&gt;IOUserDao&lt;/span&gt;&lt;/font&gt;&lt;/div&gt;" style="text;strokeColor=none;fillColor=none;align=left;verticalAlign=top;spacingLeft=4;spacingRight=4;overflow=hidden;rotatable=0;points=[[0,0.5],[1,0.5]];portConstraint=eastwest;whiteSpace=wrap;html=1;" vertex="1" parent="ajc7hb3r5Duzxjk8FhJC-14">
          <mxGeometry y="52" width="320" height="26" as="geometry" />
        </mxCell>
        <mxCell id="ajc7hb3r5Duzxjk8FhJC-16" value="" style="line;strokeWidth=1;fillColor=none;align=left;verticalAlign=middle;spacingTop=-1;spacingLeft=3;spacingRight=3;rotatable=0;labelPosition=right;points=[];portConstraint=eastwest;strokeColor=inherit;" vertex="1" parent="ajc7hb3r5Duzxjk8FhJC-14">
          <mxGeometry y="78" width="320" height="8" as="geometry" />
        </mxCell>
        <mxCell id="ajc7hb3r5Duzxjk8FhJC-17" value="+&amp;nbsp;&lt;span style=&quot;color: rgb(210, 168, 255); background-color: rgb(13, 17, 23); font-family: &amp;quot;Droid Sans Mono&amp;quot;, &amp;quot;monospace&amp;quot;, monospace; white-space: pre;&quot;&gt;AuthGuard&lt;/span&gt;&lt;span style=&quot;background-color: transparent; color: light-dark(rgb(0, 0, 0), rgb(255, 255, 255));&quot;&gt;(&lt;/span&gt;&lt;span style=&quot;font-family: &amp;quot;Droid Sans Mono&amp;quot;, &amp;quot;monospace&amp;quot;, monospace; white-space: pre; color: rgb(253, 172, 84);&quot;&gt;c&lt;/span&gt;&lt;span style=&quot;font-family: &amp;quot;Droid Sans Mono&amp;quot;, &amp;quot;monospace&amp;quot;, monospace; white-space: pre; background-color: rgb(13, 17, 23);&quot;&gt;&lt;font color=&quot;#c9d1d9&quot;&gt; &lt;/font&gt;&lt;/span&gt;&lt;span style=&quot;font-family: &amp;quot;Droid Sans Mono&amp;quot;, &amp;quot;monospace&amp;quot;, monospace; white-space: pre; color: rgb(236, 142, 44);&quot;&gt;*&lt;/span&gt;&lt;span style=&quot;font-family: &amp;quot;Droid Sans Mono&amp;quot;, &amp;quot;monospace&amp;quot;, monospace; white-space: pre; color: rgb(253, 172, 84);&quot;&gt;gin&lt;/span&gt;&lt;span style=&quot;background-color: rgb(13, 17, 23); color: rgb(201, 209, 217); font-family: &amp;quot;Droid Sans Mono&amp;quot;, &amp;quot;monospace&amp;quot;, monospace; white-space: pre;&quot;&gt;.&lt;/span&gt;&lt;span style=&quot;font-family: &amp;quot;Droid Sans Mono&amp;quot;, &amp;quot;monospace&amp;quot;, monospace; white-space: pre; color: rgb(253, 172, 84);&quot;&gt;Context&lt;/span&gt;&lt;span style=&quot;background-color: transparent; color: light-dark(rgb(0, 0, 0), rgb(255, 255, 255));&quot;&gt;):&amp;nbsp;&lt;/span&gt;&lt;span style=&quot;background-color: rgb(13, 17, 23); color: rgb(201, 209, 217); font-family: &amp;quot;Droid Sans Mono&amp;quot;, &amp;quot;monospace&amp;quot;, monospace; white-space: pre;&quot;&gt; (&lt;/span&gt;&lt;span style=&quot;font-family: &amp;quot;Droid Sans Mono&amp;quot;, &amp;quot;monospace&amp;quot;, monospace; white-space: pre; color: rgb(236, 142, 44);&quot;&gt;*&lt;/span&gt;&lt;span style=&quot;font-family: &amp;quot;Droid Sans Mono&amp;quot;, &amp;quot;monospace&amp;quot;, monospace; white-space: pre; color: rgb(253, 172, 84);&quot;&gt;model&lt;/span&gt;&lt;span style=&quot;background-color: rgb(13, 17, 23); color: rgb(201, 209, 217); font-family: &amp;quot;Droid Sans Mono&amp;quot;, &amp;quot;monospace&amp;quot;, monospace; white-space: pre;&quot;&gt;.&lt;/span&gt;&lt;span style=&quot;font-family: &amp;quot;Droid Sans Mono&amp;quot;, &amp;quot;monospace&amp;quot;, monospace; white-space: pre; color: rgb(253, 172, 84);&quot;&gt;User&lt;/span&gt;&lt;span style=&quot;background-color: rgb(13, 17, 23); color: rgb(201, 209, 217); font-family: &amp;quot;Droid Sans Mono&amp;quot;, &amp;quot;monospace&amp;quot;, monospace; white-space: pre;&quot;&gt;, []&lt;/span&gt;&lt;span style=&quot;font-family: &amp;quot;Droid Sans Mono&amp;quot;, &amp;quot;monospace&amp;quot;, monospace; white-space: pre; color: rgb(253, 172, 84);&quot;&gt;dto&lt;/span&gt;&lt;span style=&quot;background-color: rgb(13, 17, 23); color: rgb(201, 209, 217); font-family: &amp;quot;Droid Sans Mono&amp;quot;, &amp;quot;monospace&amp;quot;, monospace; white-space: pre;&quot;&gt;.&lt;/span&gt;&lt;span style=&quot;font-family: &amp;quot;Droid Sans Mono&amp;quot;, &amp;quot;monospace&amp;quot;, monospace; white-space: pre; color: rgb(253, 172, 84);&quot;&gt;UserPermission)&lt;/span&gt;" style="text;strokeColor=none;fillColor=none;align=left;verticalAlign=top;spacingLeft=4;spacingRight=4;overflow=hidden;rotatable=0;points=[[0,0.5],[1,0.5]];portConstraint=eastwest;whiteSpace=wrap;html=1;fontSize=8;" vertex="1" parent="ajc7hb3r5Duzxjk8FhJC-14">
          <mxGeometry y="86" width="320" height="34" as="geometry" />
        </mxCell>
        <mxCell id="ajc7hb3r5Duzxjk8FhJC-20" value="«interface»&lt;br&gt;&lt;b&gt;IAuthChecker&lt;/b&gt;&lt;div&gt;&lt;br&gt;&lt;/div&gt;" style="html=1;whiteSpace=wrap;" vertex="1" parent="1">
          <mxGeometry x="640" y="160" width="270" height="70" as="geometry" />
        </mxCell>
        <mxCell id="ajc7hb3r5Duzxjk8FhJC-21" value="&lt;font style=&quot;font-size: 7px;&quot;&gt;+&amp;nbsp;&lt;span style=&quot;color: rgb(210, 168, 255); background-color: rgb(13, 17, 23); font-family: &amp;quot;Droid Sans Mono&amp;quot;, &amp;quot;monospace&amp;quot;, monospace; white-space: pre;&quot;&gt;AuthGuard&lt;/span&gt;&lt;span style=&quot;color: light-dark(rgb(0, 0, 0), rgb(255, 255, 255)); background-color: transparent;&quot;&gt;(&lt;/span&gt;&lt;span style=&quot;font-family: &amp;quot;Droid Sans Mono&amp;quot;, &amp;quot;monospace&amp;quot;, monospace; white-space: pre; color: rgb(253, 172, 84);&quot;&gt;c&lt;/span&gt;&lt;span style=&quot;font-family: &amp;quot;Droid Sans Mono&amp;quot;, &amp;quot;monospace&amp;quot;, monospace; white-space: pre; background-color: rgb(13, 17, 23);&quot;&gt;&lt;font&gt; &lt;/font&gt;&lt;/span&gt;&lt;span style=&quot;font-family: &amp;quot;Droid Sans Mono&amp;quot;, &amp;quot;monospace&amp;quot;, monospace; white-space: pre; color: rgb(236, 142, 44);&quot;&gt;*&lt;/span&gt;&lt;span style=&quot;font-family: &amp;quot;Droid Sans Mono&amp;quot;, &amp;quot;monospace&amp;quot;, monospace; white-space: pre; color: rgb(253, 172, 84);&quot;&gt;gin&lt;/span&gt;&lt;span style=&quot;background-color: rgb(13, 17, 23); color: rgb(201, 209, 217); font-family: &amp;quot;Droid Sans Mono&amp;quot;, &amp;quot;monospace&amp;quot;, monospace; white-space: pre;&quot;&gt;.&lt;/span&gt;&lt;span style=&quot;font-family: &amp;quot;Droid Sans Mono&amp;quot;, &amp;quot;monospace&amp;quot;, monospace; white-space: pre; color: rgb(253, 172, 84);&quot;&gt;Context&lt;/span&gt;&lt;span style=&quot;color: light-dark(rgb(0, 0, 0), rgb(255, 255, 255)); background-color: transparent;&quot;&gt;):&amp;nbsp;&lt;/span&gt;&lt;span style=&quot;background-color: rgb(13, 17, 23); color: rgb(201, 209, 217); font-family: &amp;quot;Droid Sans Mono&amp;quot;, &amp;quot;monospace&amp;quot;, monospace; white-space: pre;&quot;&gt; (&lt;/span&gt;&lt;span style=&quot;font-family: &amp;quot;Droid Sans Mono&amp;quot;, &amp;quot;monospace&amp;quot;, monospace; white-space: pre; color: rgb(236, 142, 44);&quot;&gt;*&lt;/span&gt;&lt;span style=&quot;font-family: &amp;quot;Droid Sans Mono&amp;quot;, &amp;quot;monospace&amp;quot;, monospace; white-space: pre; color: rgb(253, 172, 84);&quot;&gt;model&lt;/span&gt;&lt;span style=&quot;background-color: rgb(13, 17, 23); color: rgb(201, 209, 217); font-family: &amp;quot;Droid Sans Mono&amp;quot;, &amp;quot;monospace&amp;quot;, monospace; white-space: pre;&quot;&gt;.&lt;/span&gt;&lt;span style=&quot;font-family: &amp;quot;Droid Sans Mono&amp;quot;, &amp;quot;monospace&amp;quot;, monospace; white-space: pre; color: rgb(253, 172, 84);&quot;&gt;User&lt;/span&gt;&lt;span style=&quot;background-color: rgb(13, 17, 23); color: rgb(201, 209, 217); font-family: &amp;quot;Droid Sans Mono&amp;quot;, &amp;quot;monospace&amp;quot;, monospace; white-space: pre;&quot;&gt;, []&lt;/span&gt;&lt;span style=&quot;font-family: &amp;quot;Droid Sans Mono&amp;quot;, &amp;quot;monospace&amp;quot;, monospace; white-space: pre; color: rgb(253, 172, 84);&quot;&gt;dto&lt;/span&gt;&lt;span style=&quot;background-color: rgb(13, 17, 23); color: rgb(201, 209, 217); font-family: &amp;quot;Droid Sans Mono&amp;quot;, &amp;quot;monospace&amp;quot;, monospace; white-space: pre;&quot;&gt;.&lt;/span&gt;&lt;span style=&quot;font-family: &amp;quot;Droid Sans Mono&amp;quot;, &amp;quot;monospace&amp;quot;, monospace; white-space: pre; color: rgb(253, 172, 84);&quot;&gt;UserPermission)&lt;/span&gt;&lt;/font&gt;" style="text;strokeColor=none;fillColor=none;align=left;verticalAlign=top;spacingLeft=4;spacingRight=4;overflow=hidden;rotatable=0;points=[[0,0.5],[1,0.5]];portConstraint=eastwest;whiteSpace=wrap;html=1;" vertex="1" parent="1">
          <mxGeometry x="630" y="200" width="280" height="30" as="geometry" />
        </mxCell>
        <mxCell id="ajc7hb3r5Duzxjk8FhJC-22" value="verify here" style="text;html=1;align=center;verticalAlign=middle;whiteSpace=wrap;rounded=0;" vertex="1" parent="1">
          <mxGeometry x="970" y="390" width="60" height="30" as="geometry" />
        </mxCell>
        <mxCell id="ajc7hb3r5Duzxjk8FhJC-23" value="JwtService" style="swimlane;fontStyle=1;align=center;verticalAlign=top;childLayout=stackLayout;horizontal=1;startSize=26;horizontalStack=0;resizeParent=1;resizeParentMax=0;resizeLast=0;collapsible=1;marginBottom=0;whiteSpace=wrap;html=1;" vertex="1" parent="1">
          <mxGeometry x="1040" y="294" width="330" height="112" as="geometry" />
        </mxCell>
        <mxCell id="ajc7hb3r5Duzxjk8FhJC-24" value="&lt;div style=&quot;color: rgb(201, 209, 217); background-color: rgb(13, 17, 23); font-family: &amp;quot;Droid Sans Mono&amp;quot;, &amp;quot;monospace&amp;quot;, monospace; line-height: 19px; white-space: pre;&quot;&gt;secretKey &lt;span style=&quot;color: #ec8e2c;&quot;&gt;string&lt;/span&gt;&lt;/div&gt;" style="text;strokeColor=none;fillColor=none;align=left;verticalAlign=top;spacingLeft=4;spacingRight=4;overflow=hidden;rotatable=0;points=[[0,0.5],[1,0.5]];portConstraint=eastwest;whiteSpace=wrap;html=1;fontSize=8;" vertex="1" parent="ajc7hb3r5Duzxjk8FhJC-23">
          <mxGeometry y="26" width="330" height="26" as="geometry" />
        </mxCell>
        <mxCell id="ajc7hb3r5Duzxjk8FhJC-25" value="" style="line;strokeWidth=1;fillColor=none;align=left;verticalAlign=middle;spacingTop=-1;spacingLeft=3;spacingRight=3;rotatable=0;labelPosition=right;points=[];portConstraint=eastwest;strokeColor=inherit;" vertex="1" parent="ajc7hb3r5Duzxjk8FhJC-23">
          <mxGeometry y="52" width="330" height="8" as="geometry" />
        </mxCell>
        <mxCell id="ajc7hb3r5Duzxjk8FhJC-26" value="+&amp;nbsp;&lt;span style=&quot;color: rgb(210, 168, 255); background-color: rgb(13, 17, 23); font-family: &amp;quot;Droid Sans Mono&amp;quot;, &amp;quot;monospace&amp;quot;, monospace; white-space: pre;&quot;&gt;GenerateToken&lt;/span&gt;&lt;span style=&quot;background-color: rgb(13, 17, 23); color: rgb(201, 209, 217); font-family: &amp;quot;Droid Sans Mono&amp;quot;, &amp;quot;monospace&amp;quot;, monospace; white-space: pre;&quot;&gt;(&lt;/span&gt;&lt;span style=&quot;font-family: &amp;quot;Droid Sans Mono&amp;quot;, &amp;quot;monospace&amp;quot;, monospace; white-space: pre; color: rgb(253, 172, 84);&quot;&gt;payload&lt;/span&gt;&lt;span style=&quot;background-color: rgb(13, 17, 23); color: rgb(201, 209, 217); font-family: &amp;quot;Droid Sans Mono&amp;quot;, &amp;quot;monospace&amp;quot;, monospace; white-space: pre;&quot;&gt; &lt;/span&gt;&lt;span style=&quot;font-family: &amp;quot;Droid Sans Mono&amp;quot;, &amp;quot;monospace&amp;quot;, monospace; white-space: pre; color: rgb(236, 142, 44);&quot;&gt;*&lt;/span&gt;&lt;span style=&quot;font-family: &amp;quot;Droid Sans Mono&amp;quot;, &amp;quot;monospace&amp;quot;, monospace; white-space: pre; color: rgb(253, 172, 84);&quot;&gt;Payload&lt;/span&gt;&lt;span style=&quot;background-color: rgb(13, 17, 23); color: rgb(201, 209, 217); font-family: &amp;quot;Droid Sans Mono&amp;quot;, &amp;quot;monospace&amp;quot;, monospace; white-space: pre;&quot;&gt;) (&lt;/span&gt;&lt;span style=&quot;font-family: &amp;quot;Droid Sans Mono&amp;quot;, &amp;quot;monospace&amp;quot;, monospace; white-space: pre; color: rgb(236, 142, 44);&quot;&gt;string&lt;/span&gt;&lt;span style=&quot;background-color: rgb(13, 17, 23); color: rgb(201, 209, 217); font-family: &amp;quot;Droid Sans Mono&amp;quot;, &amp;quot;monospace&amp;quot;, monospace; white-space: pre;&quot;&gt;, &lt;/span&gt;&lt;span style=&quot;font-family: &amp;quot;Droid Sans Mono&amp;quot;, &amp;quot;monospace&amp;quot;, monospace; white-space: pre; color: rgb(236, 142, 44);&quot;&gt;error&lt;/span&gt;&lt;span style=&quot;background-color: rgb(13, 17, 23); color: rgb(201, 209, 217); font-family: &amp;quot;Droid Sans Mono&amp;quot;, &amp;quot;monospace&amp;quot;, monospace; white-space: pre;&quot;&gt;)&lt;/span&gt;" style="text;strokeColor=none;fillColor=none;align=left;verticalAlign=top;spacingLeft=4;spacingRight=4;overflow=hidden;rotatable=0;points=[[0,0.5],[1,0.5]];portConstraint=eastwest;whiteSpace=wrap;html=1;fontSize=8;" vertex="1" parent="ajc7hb3r5Duzxjk8FhJC-23">
          <mxGeometry y="60" width="330" height="26" as="geometry" />
        </mxCell>
        <mxCell id="ajc7hb3r5Duzxjk8FhJC-27" value="+&amp;nbsp;&lt;span style=&quot;background-color: rgb(13, 17, 23); color: rgb(201, 209, 217); font-family: &amp;quot;Droid Sans Mono&amp;quot;, &amp;quot;monospace&amp;quot;, monospace; white-space: pre;&quot;&gt; &lt;/span&gt;&lt;span style=&quot;font-family: &amp;quot;Droid Sans Mono&amp;quot;, &amp;quot;monospace&amp;quot;, monospace; white-space: pre; color: rgb(210, 168, 255);&quot;&gt;VerifySaleHubToken&lt;/span&gt;&lt;span style=&quot;background-color: rgb(13, 17, 23); color: rgb(201, 209, 217); font-family: &amp;quot;Droid Sans Mono&amp;quot;, &amp;quot;monospace&amp;quot;, monospace; white-space: pre;&quot;&gt;(&lt;/span&gt;&lt;span style=&quot;font-family: &amp;quot;Droid Sans Mono&amp;quot;, &amp;quot;monospace&amp;quot;, monospace; white-space: pre; color: rgb(253, 172, 84);&quot;&gt;token&lt;/span&gt;&lt;span style=&quot;background-color: rgb(13, 17, 23); color: rgb(201, 209, 217); font-family: &amp;quot;Droid Sans Mono&amp;quot;, &amp;quot;monospace&amp;quot;, monospace; white-space: pre;&quot;&gt; &lt;/span&gt;&lt;span style=&quot;font-family: &amp;quot;Droid Sans Mono&amp;quot;, &amp;quot;monospace&amp;quot;, monospace; white-space: pre; color: rgb(236, 142, 44);&quot;&gt;string&lt;/span&gt;&lt;span style=&quot;background-color: rgb(13, 17, 23); color: rgb(201, 209, 217); font-family: &amp;quot;Droid Sans Mono&amp;quot;, &amp;quot;monospace&amp;quot;, monospace; white-space: pre;&quot;&gt;) (&lt;/span&gt;&lt;span style=&quot;font-family: &amp;quot;Droid Sans Mono&amp;quot;, &amp;quot;monospace&amp;quot;, monospace; white-space: pre; color: rgb(236, 142, 44);&quot;&gt;*&lt;/span&gt;&lt;span style=&quot;font-family: &amp;quot;Droid Sans Mono&amp;quot;, &amp;quot;monospace&amp;quot;, monospace; white-space: pre; color: rgb(253, 172, 84);&quot;&gt;AzureDirectoryTokenPayload&lt;/span&gt;&lt;span style=&quot;background-color: rgb(13, 17, 23); color: rgb(201, 209, 217); font-family: &amp;quot;Droid Sans Mono&amp;quot;, &amp;quot;monospace&amp;quot;, monospace; white-space: pre;&quot;&gt;, &lt;/span&gt;&lt;span style=&quot;font-family: &amp;quot;Droid Sans Mono&amp;quot;, &amp;quot;monospace&amp;quot;, monospace; white-space: pre; color: rgb(236, 142, 44);&quot;&gt;bool&lt;/span&gt;&lt;span style=&quot;background-color: rgb(13, 17, 23); color: rgb(201, 209, 217); font-family: &amp;quot;Droid Sans Mono&amp;quot;, &amp;quot;monospace&amp;quot;, monospace; white-space: pre;&quot;&gt;, &lt;/span&gt;&lt;span style=&quot;font-family: &amp;quot;Droid Sans Mono&amp;quot;, &amp;quot;monospace&amp;quot;, monospace; white-space: pre; color: rgb(236, 142, 44);&quot;&gt;error&lt;/span&gt;&lt;span style=&quot;background-color: rgb(13, 17, 23); color: rgb(201, 209, 217); font-family: &amp;quot;Droid Sans Mono&amp;quot;, &amp;quot;monospace&amp;quot;, monospace; white-space: pre;&quot;&gt;)&lt;/span&gt;" style="text;strokeColor=none;fillColor=none;align=left;verticalAlign=top;spacingLeft=4;spacingRight=4;overflow=hidden;rotatable=0;points=[[0,0.5],[1,0.5]];portConstraint=eastwest;whiteSpace=wrap;html=1;fontSize=7;" vertex="1" parent="ajc7hb3r5Duzxjk8FhJC-23">
          <mxGeometry y="86" width="330" height="26" as="geometry" />
        </mxCell>
        <mxCell id="ajc7hb3r5Duzxjk8FhJC-28" style="edgeStyle=orthogonalEdgeStyle;rounded=0;orthogonalLoop=1;jettySize=auto;html=1;entryX=0;entryY=0.5;entryDx=0;entryDy=0;" edge="1" parent="1" source="ajc7hb3r5Duzxjk8FhJC-17" target="ajc7hb3r5Duzxjk8FhJC-27">
          <mxGeometry relative="1" as="geometry" />
        </mxCell>
        <mxCell id="ajc7hb3r5Duzxjk8FhJC-29" value="&lt;div style=&quot;color: #c9d1d9;background-color: #0d1117;font-family: &#39;Droid Sans Mono&#39;, &#39;monospace&#39;, monospace;font-weight: normal;font-size: 14px;line-height: 19px;white-space: pre;&quot;&gt;&lt;span style=&quot;color: #fdac54;&quot;&gt;Payload&lt;/span&gt;&lt;/div&gt;" style="swimlane;fontStyle=1;align=center;verticalAlign=top;childLayout=stackLayout;horizontal=1;startSize=26;horizontalStack=0;resizeParent=1;resizeParentMax=0;resizeLast=0;collapsible=1;marginBottom=0;whiteSpace=wrap;html=1;" vertex="1" parent="1">
          <mxGeometry x="1505" y="430" width="160" height="164" as="geometry" />
        </mxCell>
        <mxCell id="ajc7hb3r5Duzxjk8FhJC-30" value="+&amp;nbsp;&lt;span style=&quot;background-color: rgb(13, 17, 23); color: rgb(201, 209, 217); font-family: &amp;quot;Droid Sans Mono&amp;quot;, &amp;quot;monospace&amp;quot;, monospace; white-space: pre;&quot;&gt;UserID         &lt;/span&gt;&lt;span style=&quot;font-family: &amp;quot;Droid Sans Mono&amp;quot;, &amp;quot;monospace&amp;quot;, monospace; white-space: pre; color: rgb(236, 142, 44);&quot;&gt;string&lt;/span&gt;" style="text;strokeColor=none;fillColor=none;align=left;verticalAlign=top;spacingLeft=4;spacingRight=4;overflow=hidden;rotatable=0;points=[[0,0.5],[1,0.5]];portConstraint=eastwest;whiteSpace=wrap;html=1;fontSize=9;" vertex="1" parent="ajc7hb3r5Duzxjk8FhJC-29">
          <mxGeometry y="26" width="160" height="26" as="geometry" />
        </mxCell>
        <mxCell id="ajc7hb3r5Duzxjk8FhJC-31" value="" style="line;strokeWidth=1;fillColor=none;align=left;verticalAlign=middle;spacingTop=-1;spacingLeft=3;spacingRight=3;rotatable=0;labelPosition=right;points=[];portConstraint=eastwest;strokeColor=inherit;" vertex="1" parent="ajc7hb3r5Duzxjk8FhJC-29">
          <mxGeometry y="52" width="160" height="8" as="geometry" />
        </mxCell>
        <mxCell id="ajc7hb3r5Duzxjk8FhJC-34" value="+&amp;nbsp;&lt;span style=&quot;font-size: 8px;&quot;&gt;+&amp;nbsp;&lt;/span&gt;&lt;span style=&quot;font-size: 8px; background-color: rgb(13, 17, 23); color: rgb(201, 209, 217); font-family: &amp;quot;Droid Sans Mono&amp;quot;, &amp;quot;monospace&amp;quot;, monospace; white-space: pre;&quot;&gt;Username       &lt;/span&gt;&lt;span style=&quot;font-size: 8px; font-family: &amp;quot;Droid Sans Mono&amp;quot;, &amp;quot;monospace&amp;quot;, monospace; white-space: pre; color: rgb(236, 142, 44);&quot;&gt;string&lt;/span&gt;" style="text;strokeColor=none;fillColor=none;align=left;verticalAlign=top;spacingLeft=4;spacingRight=4;overflow=hidden;rotatable=0;points=[[0,0.5],[1,0.5]];portConstraint=eastwest;whiteSpace=wrap;html=1;fontSize=9;" vertex="1" parent="ajc7hb3r5Duzxjk8FhJC-29">
          <mxGeometry y="60" width="160" height="26" as="geometry" />
        </mxCell>
        <mxCell id="ajc7hb3r5Duzxjk8FhJC-35" value="+ &lt;span style=&quot;font-size: 8px;&quot;&gt;Email string&lt;br&gt;&lt;/span&gt;" style="text;strokeColor=none;fillColor=none;align=left;verticalAlign=top;spacingLeft=4;spacingRight=4;overflow=hidden;rotatable=0;points=[[0,0.5],[1,0.5]];portConstraint=eastwest;whiteSpace=wrap;html=1;fontSize=9;" vertex="1" parent="ajc7hb3r5Duzxjk8FhJC-29">
          <mxGeometry y="86" width="160" height="26" as="geometry" />
        </mxCell>
        <mxCell id="ajc7hb3r5Duzxjk8FhJC-36" value="+ Team ID&amp;nbsp; string&lt;span style=&quot;font-size: 8px;&quot;&gt;&lt;br&gt;&lt;/span&gt;" style="text;strokeColor=none;fillColor=none;align=left;verticalAlign=top;spacingLeft=4;spacingRight=4;overflow=hidden;rotatable=0;points=[[0,0.5],[1,0.5]];portConstraint=eastwest;whiteSpace=wrap;html=1;fontSize=9;" vertex="1" parent="ajc7hb3r5Duzxjk8FhJC-29">
          <mxGeometry y="112" width="160" height="26" as="geometry" />
        </mxCell>
        <mxCell id="ajc7hb3r5Duzxjk8FhJC-37" value="+ ObjectId&amp;nbsp; string&lt;span style=&quot;font-size: 8px;&quot;&gt;&lt;br&gt;&lt;/span&gt;" style="text;strokeColor=none;fillColor=none;align=left;verticalAlign=top;spacingLeft=4;spacingRight=4;overflow=hidden;rotatable=0;points=[[0,0.5],[1,0.5]];portConstraint=eastwest;whiteSpace=wrap;html=1;fontSize=9;" vertex="1" parent="ajc7hb3r5Duzxjk8FhJC-29">
          <mxGeometry y="138" width="160" height="26" as="geometry" />
        </mxCell>
        <mxCell id="ajc7hb3r5Duzxjk8FhJC-38" style="edgeStyle=orthogonalEdgeStyle;rounded=0;orthogonalLoop=1;jettySize=auto;html=1;entryX=0.5;entryY=0;entryDx=0;entryDy=0;" edge="1" parent="1" source="ajc7hb3r5Duzxjk8FhJC-26" target="ajc7hb3r5Duzxjk8FhJC-29">
          <mxGeometry relative="1" as="geometry" />
        </mxCell>
        <mxCell id="ajc7hb3r5Duzxjk8FhJC-39" value="AzureDictionaryTokenPayload" style="swimlane;fontStyle=1;align=center;verticalAlign=top;childLayout=stackLayout;horizontal=1;startSize=26;horizontalStack=0;resizeParent=1;resizeParentMax=0;resizeLast=0;collapsible=1;marginBottom=0;whiteSpace=wrap;html=1;" vertex="1" parent="1">
          <mxGeometry x="1490" y="200" width="190" height="86" as="geometry" />
        </mxCell>
        <mxCell id="ajc7hb3r5Duzxjk8FhJC-40" value="+ field: type" style="text;strokeColor=none;fillColor=none;align=left;verticalAlign=top;spacingLeft=4;spacingRight=4;overflow=hidden;rotatable=0;points=[[0,0.5],[1,0.5]];portConstraint=eastwest;whiteSpace=wrap;html=1;" vertex="1" parent="ajc7hb3r5Duzxjk8FhJC-39">
          <mxGeometry y="26" width="190" height="26" as="geometry" />
        </mxCell>
        <mxCell id="ajc7hb3r5Duzxjk8FhJC-41" value="" style="line;strokeWidth=1;fillColor=none;align=left;verticalAlign=middle;spacingTop=-1;spacingLeft=3;spacingRight=3;rotatable=0;labelPosition=right;points=[];portConstraint=eastwest;strokeColor=inherit;" vertex="1" parent="ajc7hb3r5Duzxjk8FhJC-39">
          <mxGeometry y="52" width="190" height="8" as="geometry" />
        </mxCell>
        <mxCell id="ajc7hb3r5Duzxjk8FhJC-42" value="+ method(type): type" style="text;strokeColor=none;fillColor=none;align=left;verticalAlign=top;spacingLeft=4;spacingRight=4;overflow=hidden;rotatable=0;points=[[0,0.5],[1,0.5]];portConstraint=eastwest;whiteSpace=wrap;html=1;" vertex="1" parent="ajc7hb3r5Duzxjk8FhJC-39">
          <mxGeometry y="60" width="190" height="26" as="geometry" />
        </mxCell>
        <mxCell id="ajc7hb3r5Duzxjk8FhJC-43" value="Socket" style="rounded=0;whiteSpace=wrap;html=1;" vertex="1" parent="1">
          <mxGeometry x="70" y="360" width="120" height="60" as="geometry" />
        </mxCell>
        <mxCell id="ajc7hb3r5Duzxjk8FhJC-44" style="edgeStyle=orthogonalEdgeStyle;rounded=0;orthogonalLoop=1;jettySize=auto;html=1;entryX=0;entryY=0.5;entryDx=0;entryDy=0;" edge="1" parent="1" source="ajc7hb3r5Duzxjk8FhJC-26" target="ajc7hb3r5Duzxjk8FhJC-40">
          <mxGeometry relative="1" as="geometry" />
        </mxCell>
        <mxCell id="ajc7hb3r5Duzxjk8FhJC-52" style="edgeStyle=orthogonalEdgeStyle;rounded=0;orthogonalLoop=1;jettySize=auto;html=1;entryX=1;entryY=0.5;entryDx=0;entryDy=0;startArrow=classic;startFill=0;endArrow=none;" edge="1" parent="1" source="ajc7hb3r5Duzxjk8FhJC-50" target="ajc7hb3r5Duzxjk8FhJC-17">
          <mxGeometry relative="1" as="geometry" />
        </mxCell>
        <mxCell id="ajc7hb3r5Duzxjk8FhJC-50" value="GetTokenFromHeader()" style="html=1;whiteSpace=wrap;" vertex="1" parent="1">
          <mxGeometry x="1000" y="470" width="160" height="80" as="geometry" />
        </mxCell>
        <mxCell id="ajc7hb3r5Duzxjk8FhJC-53" value="Get field Authorization of header" style="text;html=1;align=center;verticalAlign=middle;whiteSpace=wrap;rounded=0;fontColor=#FF3333;" vertex="1" parent="1">
          <mxGeometry x="1160" y="520" width="130" height="30" as="geometry" />
        </mxCell>
        <mxCell id="ajc7hb3r5Duzxjk8FhJC-66" style="edgeStyle=orthogonalEdgeStyle;rounded=0;orthogonalLoop=1;jettySize=auto;html=1;entryX=0.5;entryY=0;entryDx=0;entryDy=0;" edge="1" parent="1" source="ajc7hb3r5Duzxjk8FhJC-55" target="ajc7hb3r5Duzxjk8FhJC-62">
          <mxGeometry relative="1" as="geometry" />
        </mxCell>
        <mxCell id="ajc7hb3r5Duzxjk8FhJC-55" value="ListAPI" style="swimlane;fontStyle=0;childLayout=stackLayout;horizontal=1;startSize=20;fillColor=none;horizontalStack=0;resizeParent=1;resizeParentMax=0;resizeLast=0;collapsible=1;marginBottom=0;whiteSpace=wrap;html=1;" vertex="1" parent="1">
          <mxGeometry x="170" y="-300" width="580" height="176" as="geometry" />
        </mxCell>
        <mxCell id="ajc7hb3r5Duzxjk8FhJC-56" value="+ CheckAuthentication:&amp;nbsp; bool" style="text;strokeColor=none;fillColor=none;align=left;verticalAlign=top;spacingLeft=4;spacingRight=4;overflow=hidden;rotatable=0;points=[[0,0.5],[1,0.5]];portConstraint=eastwest;whiteSpace=wrap;html=1;" vertex="1" parent="ajc7hb3r5Duzxjk8FhJC-55">
          <mxGeometry y="20" width="580" height="26" as="geometry" />
        </mxCell>
        <mxCell id="ajc7hb3r5Duzxjk8FhJC-57" value="+ AuthenticationChecker: IAuthChecker" style="text;strokeColor=none;fillColor=none;align=left;verticalAlign=top;spacingLeft=4;spacingRight=4;overflow=hidden;rotatable=0;points=[[0,0.5],[1,0.5]];portConstraint=eastwest;whiteSpace=wrap;html=1;" vertex="1" parent="ajc7hb3r5Duzxjk8FhJC-55">
          <mxGeometry y="46" width="580" height="26" as="geometry" />
        </mxCell>
        <mxCell id="ajc7hb3r5Duzxjk8FhJC-58" value="+ permissions: []Permission" style="text;strokeColor=none;fillColor=none;align=left;verticalAlign=top;spacingLeft=4;spacingRight=4;overflow=hidden;rotatable=0;points=[[0,0.5],[1,0.5]];portConstraint=eastwest;whiteSpace=wrap;html=1;" vertex="1" parent="ajc7hb3r5Duzxjk8FhJC-55">
          <mxGeometry y="72" width="580" height="26" as="geometry" />
        </mxCell>
        <mxCell id="ajc7hb3r5Duzxjk8FhJC-59" value="+ filterBackends: []FilterBackend" style="text;strokeColor=none;fillColor=none;align=left;verticalAlign=top;spacingLeft=4;spacingRight=4;overflow=hidden;rotatable=0;points=[[0,0.5],[1,0.5]];portConstraint=eastwest;whiteSpace=wrap;html=1;" vertex="1" parent="ajc7hb3r5Duzxjk8FhJC-55">
          <mxGeometry y="98" width="580" height="26" as="geometry" />
        </mxCell>
        <mxCell id="ajc7hb3r5Duzxjk8FhJC-60" value="+ serializer: interface{}" style="text;strokeColor=none;fillColor=none;align=left;verticalAlign=top;spacingLeft=4;spacingRight=4;overflow=hidden;rotatable=0;points=[[0,0.5],[1,0.5]];portConstraint=eastwest;whiteSpace=wrap;html=1;" vertex="1" parent="ajc7hb3r5Duzxjk8FhJC-55">
          <mxGeometry y="124" width="580" height="26" as="geometry" />
        </mxCell>
        <mxCell id="ajc7hb3r5Duzxjk8FhJC-61" value="+&amp;nbsp;&lt;span style=&quot;background-color: rgb(13, 17, 23); color: rgb(201, 209, 217); font-family: &amp;quot;Droid Sans Mono&amp;quot;, &amp;quot;monospace&amp;quot;, monospace; white-space: pre;&quot;&gt;APIFunc&lt;/span&gt;&lt;span style=&quot;background-color: transparent; color: light-dark(rgb(0, 0, 0), rgb(255, 255, 255));&quot;&gt;:&amp;nbsp;&lt;/span&gt;&lt;span style=&quot;font-family: &amp;quot;Droid Sans Mono&amp;quot;, &amp;quot;monospace&amp;quot;, monospace; white-space: pre; color: rgb(236, 142, 44);&quot;&gt;func&lt;/span&gt;&lt;span style=&quot;background-color: rgb(13, 17, 23); color: rgb(201, 209, 217); font-family: &amp;quot;Droid Sans Mono&amp;quot;, &amp;quot;monospace&amp;quot;, monospace; white-space: pre;&quot;&gt;(&lt;/span&gt;&lt;span style=&quot;font-family: &amp;quot;Droid Sans Mono&amp;quot;, &amp;quot;monospace&amp;quot;, monospace; white-space: pre; color: rgb(236, 142, 44);&quot;&gt;*&lt;/span&gt;&lt;span style=&quot;font-family: &amp;quot;Droid Sans Mono&amp;quot;, &amp;quot;monospace&amp;quot;, monospace; white-space: pre; color: rgb(253, 172, 84);&quot;&gt;model&lt;/span&gt;&lt;span style=&quot;background-color: rgb(13, 17, 23); color: rgb(201, 209, 217); font-family: &amp;quot;Droid Sans Mono&amp;quot;, &amp;quot;monospace&amp;quot;, monospace; white-space: pre;&quot;&gt;.&lt;/span&gt;&lt;span style=&quot;font-family: &amp;quot;Droid Sans Mono&amp;quot;, &amp;quot;monospace&amp;quot;, monospace; white-space: pre; color: rgb(253, 172, 84);&quot;&gt;User&lt;/span&gt;&lt;span style=&quot;background-color: rgb(13, 17, 23); color: rgb(201, 209, 217); font-family: &amp;quot;Droid Sans Mono&amp;quot;, &amp;quot;monospace&amp;quot;, monospace; white-space: pre;&quot;&gt;, []&lt;/span&gt;&lt;span style=&quot;font-family: &amp;quot;Droid Sans Mono&amp;quot;, &amp;quot;monospace&amp;quot;, monospace; white-space: pre; color: rgb(253, 172, 84);&quot;&gt;dto&lt;/span&gt;&lt;span style=&quot;background-color: rgb(13, 17, 23); color: rgb(201, 209, 217); font-family: &amp;quot;Droid Sans Mono&amp;quot;, &amp;quot;monospace&amp;quot;, monospace; white-space: pre;&quot;&gt;.&lt;/span&gt;&lt;span style=&quot;font-family: &amp;quot;Droid Sans Mono&amp;quot;, &amp;quot;monospace&amp;quot;, monospace; white-space: pre; color: rgb(253, 172, 84);&quot;&gt;UserPermission&lt;/span&gt;&lt;span style=&quot;background-color: rgb(13, 17, 23); color: rgb(201, 209, 217); font-family: &amp;quot;Droid Sans Mono&amp;quot;, &amp;quot;monospace&amp;quot;, monospace; white-space: pre;&quot;&gt;, []&lt;/span&gt;&lt;span style=&quot;font-family: &amp;quot;Droid Sans Mono&amp;quot;, &amp;quot;monospace&amp;quot;, monospace; white-space: pre; color: rgb(253, 172, 84);&quot;&gt;QuerySet&lt;/span&gt;&lt;span style=&quot;background-color: rgb(13, 17, 23); color: rgb(201, 209, 217); font-family: &amp;quot;Droid Sans Mono&amp;quot;, &amp;quot;monospace&amp;quot;, monospace; white-space: pre;&quot;&gt;, &lt;/span&gt;&lt;span style=&quot;font-family: &amp;quot;Droid Sans Mono&amp;quot;, &amp;quot;monospace&amp;quot;, monospace; white-space: pre; color: rgb(236, 142, 44);&quot;&gt;*&lt;/span&gt;&lt;span style=&quot;font-family: &amp;quot;Droid Sans Mono&amp;quot;, &amp;quot;monospace&amp;quot;, monospace; white-space: pre; color: rgb(253, 172, 84);&quot;&gt;gin&lt;/span&gt;&lt;span style=&quot;background-color: rgb(13, 17, 23); color: rgb(201, 209, 217); font-family: &amp;quot;Droid Sans Mono&amp;quot;, &amp;quot;monospace&amp;quot;, monospace; white-space: pre;&quot;&gt;.&lt;/span&gt;&lt;span style=&quot;font-family: &amp;quot;Droid Sans Mono&amp;quot;, &amp;quot;monospace&amp;quot;, monospace; white-space: pre; color: rgb(253, 172, 84);&quot;&gt;Context&lt;/span&gt;&lt;span style=&quot;background-color: rgb(13, 17, 23); color: rgb(201, 209, 217); font-family: &amp;quot;Droid Sans Mono&amp;quot;, &amp;quot;monospace&amp;quot;, monospace; white-space: pre;&quot;&gt;) (&lt;/span&gt;&lt;span style=&quot;font-family: &amp;quot;Droid Sans Mono&amp;quot;, &amp;quot;monospace&amp;quot;, monospace; white-space: pre; color: rgb(236, 142, 44);&quot;&gt;interface&lt;/span&gt;&lt;span style=&quot;background-color: rgb(13, 17, 23); color: rgb(201, 209, 217); font-family: &amp;quot;Droid Sans Mono&amp;quot;, &amp;quot;monospace&amp;quot;, monospace; white-space: pre;&quot;&gt;{}, &lt;/span&gt;&lt;span style=&quot;font-family: &amp;quot;Droid Sans Mono&amp;quot;, &amp;quot;monospace&amp;quot;, monospace; white-space: pre; color: rgb(236, 142, 44);&quot;&gt;error&lt;/span&gt;&lt;span style=&quot;background-color: rgb(13, 17, 23); color: rgb(201, 209, 217); font-family: &amp;quot;Droid Sans Mono&amp;quot;, &amp;quot;monospace&amp;quot;, monospace; white-space: pre;&quot;&gt;)&lt;/span&gt;" style="text;strokeColor=none;fillColor=none;align=left;verticalAlign=top;spacingLeft=4;spacingRight=4;overflow=hidden;rotatable=0;points=[[0,0.5],[1,0.5]];portConstraint=eastwest;whiteSpace=wrap;html=1;fontSize=9;" vertex="1" parent="ajc7hb3r5Duzxjk8FhJC-55">
          <mxGeometry y="150" width="580" height="26" as="geometry" />
        </mxCell>
        <mxCell id="ajc7hb3r5Duzxjk8FhJC-62" value="&lt;div style=&quot;color: rgb(201, 209, 217); background-color: rgb(13, 17, 23); font-family: &amp;quot;Droid Sans Mono&amp;quot;, &amp;quot;monospace&amp;quot;, monospace; font-size: 14px; line-height: 19px; white-space: pre;&quot;&gt;&lt;span style=&quot;color: #fdac54;&quot;&gt;GenericAPI&lt;/span&gt;&lt;/div&gt;" style="swimlane;fontStyle=0;childLayout=stackLayout;horizontal=1;startSize=26;fillColor=none;horizontalStack=0;resizeParent=1;resizeParentMax=0;resizeLast=0;collapsible=1;marginBottom=0;whiteSpace=wrap;html=1;" vertex="1" parent="1">
          <mxGeometry x="540" y="-610" width="400" height="208" as="geometry" />
        </mxCell>
        <mxCell id="ajc7hb3r5Duzxjk8FhJC-65" value="+HandleAPI(&lt;span style=&quot;background-color: rgb(13, 17, 23); color: rgb(201, 209, 217); font-family: &amp;quot;Droid Sans Mono&amp;quot;, &amp;quot;monospace&amp;quot;, monospace; font-size: 14px; white-space: pre;&quot;&gt;(&lt;/span&gt;&lt;span style=&quot;font-family: &amp;quot;Droid Sans Mono&amp;quot;, &amp;quot;monospace&amp;quot;, monospace; font-size: 14px; white-space: pre; color: rgb(253, 172, 84);&quot;&gt;c&lt;/span&gt;&lt;span style=&quot;background-color: rgb(13, 17, 23); color: rgb(201, 209, 217); font-family: &amp;quot;Droid Sans Mono&amp;quot;, &amp;quot;monospace&amp;quot;, monospace; font-size: 14px; white-space: pre;&quot;&gt; &lt;/span&gt;&lt;span style=&quot;font-family: &amp;quot;Droid Sans Mono&amp;quot;, &amp;quot;monospace&amp;quot;, monospace; font-size: 14px; white-space: pre; color: rgb(236, 142, 44);&quot;&gt;*&lt;/span&gt;&lt;span style=&quot;font-family: &amp;quot;Droid Sans Mono&amp;quot;, &amp;quot;monospace&amp;quot;, monospace; font-size: 14px; white-space: pre; color: rgb(253, 172, 84);&quot;&gt;gin&lt;/span&gt;&lt;span style=&quot;background-color: rgb(13, 17, 23); color: rgb(201, 209, 217); font-family: &amp;quot;Droid Sans Mono&amp;quot;, &amp;quot;monospace&amp;quot;, monospace; font-size: 14px; white-space: pre;&quot;&gt;.&lt;/span&gt;&lt;span style=&quot;font-family: &amp;quot;Droid Sans Mono&amp;quot;, &amp;quot;monospace&amp;quot;, monospace; font-size: 14px; white-space: pre; color: rgb(253, 172, 84);&quot;&gt;Context&lt;/span&gt;&lt;span style=&quot;background-color: rgb(13, 17, 23); color: rgb(201, 209, 217); font-family: &amp;quot;Droid Sans Mono&amp;quot;, &amp;quot;monospace&amp;quot;, monospace; font-size: 14px; white-space: pre;&quot;&gt;, &lt;/span&gt;&lt;span style=&quot;font-family: &amp;quot;Droid Sans Mono&amp;quot;, &amp;quot;monospace&amp;quot;, monospace; font-size: 14px; white-space: pre; color: rgb(253, 172, 84);&quot;&gt;useSeri&lt;/span&gt;&lt;span style=&quot;background-color: rgb(13, 17, 23); color: rgb(201, 209, 217); font-family: &amp;quot;Droid Sans Mono&amp;quot;, &amp;quot;monospace&amp;quot;, monospace; font-size: 14px; white-space: pre;&quot;&gt; &lt;/span&gt;&lt;span style=&quot;font-family: &amp;quot;Droid Sans Mono&amp;quot;, &amp;quot;monospace&amp;quot;, monospace; font-size: 14px; white-space: pre; color: rgb(236, 142, 44);&quot;&gt;...bool&lt;/span&gt;&lt;span style=&quot;background-color: rgb(13, 17, 23); color: rgb(201, 209, 217); font-family: &amp;quot;Droid Sans Mono&amp;quot;, &amp;quot;monospace&amp;quot;, monospace; font-size: 14px; white-space: pre;&quot;&gt;))&lt;/span&gt;" style="text;strokeColor=none;fillColor=none;align=left;verticalAlign=top;spacingLeft=4;spacingRight=4;overflow=hidden;rotatable=0;points=[[0,0.5],[1,0.5]];portConstraint=eastwest;whiteSpace=wrap;html=1;" vertex="1" parent="ajc7hb3r5Duzxjk8FhJC-62">
          <mxGeometry y="26" width="400" height="26" as="geometry" />
        </mxCell>
        <mxCell id="ajc7hb3r5Duzxjk8FhJC-75" value="+&lt;span style=&quot;background-color: rgb(13, 17, 23); color: rgb(201, 209, 217); font-family: &amp;quot;Droid Sans Mono&amp;quot;, &amp;quot;monospace&amp;quot;, monospace; font-size: 14px; white-space: pre;&quot;&gt;APIFunc&lt;/span&gt;&lt;span style=&quot;background-color: rgb(13, 17, 23); color: rgb(201, 209, 217); font-family: &amp;quot;Droid Sans Mono&amp;quot;, &amp;quot;monospace&amp;quot;, monospace; font-size: 14px; white-space: pre;&quot;&gt;(&lt;/span&gt;&lt;span style=&quot;background-color: transparent; font-family: &amp;quot;Droid Sans Mono&amp;quot;, &amp;quot;monospace&amp;quot;, monospace; font-size: 14px; white-space: pre; color: rgb(253, 172, 84);&quot;&gt;c&lt;/span&gt;&lt;span style=&quot;background-color: rgb(13, 17, 23); color: rgb(201, 209, 217); font-family: &amp;quot;Droid Sans Mono&amp;quot;, &amp;quot;monospace&amp;quot;, monospace; font-size: 14px; white-space: pre;&quot;&gt; &lt;/span&gt;&lt;span style=&quot;background-color: transparent; font-family: &amp;quot;Droid Sans Mono&amp;quot;, &amp;quot;monospace&amp;quot;, monospace; font-size: 14px; white-space: pre; color: rgb(236, 142, 44);&quot;&gt;*&lt;/span&gt;&lt;span style=&quot;background-color: transparent; font-family: &amp;quot;Droid Sans Mono&amp;quot;, &amp;quot;monospace&amp;quot;, monospace; font-size: 14px; white-space: pre; color: rgb(253, 172, 84);&quot;&gt;gin&lt;/span&gt;&lt;span style=&quot;background-color: rgb(13, 17, 23); color: rgb(201, 209, 217); font-family: &amp;quot;Droid Sans Mono&amp;quot;, &amp;quot;monospace&amp;quot;, monospace; font-size: 14px; white-space: pre;&quot;&gt;.&lt;/span&gt;&lt;span style=&quot;background-color: transparent; font-family: &amp;quot;Droid Sans Mono&amp;quot;, &amp;quot;monospace&amp;quot;, monospace; font-size: 14px; white-space: pre; color: rgb(253, 172, 84);&quot;&gt;Context&lt;/span&gt;&lt;span style=&quot;background-color: rgb(13, 17, 23); color: rgb(201, 209, 217); font-family: &amp;quot;Droid Sans Mono&amp;quot;, &amp;quot;monospace&amp;quot;, monospace; font-size: 14px; white-space: pre;&quot;&gt;, &lt;/span&gt;&lt;span style=&quot;background-color: transparent; font-family: &amp;quot;Droid Sans Mono&amp;quot;, &amp;quot;monospace&amp;quot;, monospace; font-size: 14px; white-space: pre; color: rgb(253, 172, 84);&quot;&gt;useSeri&lt;/span&gt;&lt;span style=&quot;background-color: rgb(13, 17, 23); color: rgb(201, 209, 217); font-family: &amp;quot;Droid Sans Mono&amp;quot;, &amp;quot;monospace&amp;quot;, monospace; font-size: 14px; white-space: pre;&quot;&gt; &lt;/span&gt;&lt;span style=&quot;background-color: transparent; font-family: &amp;quot;Droid Sans Mono&amp;quot;, &amp;quot;monospace&amp;quot;, monospace; font-size: 14px; white-space: pre; color: rgb(236, 142, 44);&quot;&gt;...bool&lt;/span&gt;&lt;span style=&quot;background-color: rgb(13, 17, 23); color: rgb(201, 209, 217); font-family: &amp;quot;Droid Sans Mono&amp;quot;, &amp;quot;monospace&amp;quot;, monospace; font-size: 14px; white-space: pre;&quot;&gt;)&lt;/span&gt;" style="text;strokeColor=none;fillColor=none;align=left;verticalAlign=top;spacingLeft=4;spacingRight=4;overflow=hidden;rotatable=0;points=[[0,0.5],[1,0.5]];portConstraint=eastwest;whiteSpace=wrap;html=1;" vertex="1" parent="ajc7hb3r5Duzxjk8FhJC-62">
          <mxGeometry y="52" width="400" height="26" as="geometry" />
        </mxCell>
        <mxCell id="ajc7hb3r5Duzxjk8FhJC-67" value="+verifyParameter(&lt;span style=&quot;background-color: rgb(13, 17, 23); color: rgb(201, 209, 217); font-family: &amp;quot;Droid Sans Mono&amp;quot;, &amp;quot;monospace&amp;quot;, monospace; font-size: 14px; white-space: pre;&quot;&gt;(&lt;/span&gt;&lt;span style=&quot;background-color: rgb(13, 17, 23); color: rgb(201, 209, 217); font-family: &amp;quot;Droid Sans Mono&amp;quot;, &amp;quot;monospace&amp;quot;, monospace; font-size: 14px; white-space: pre;&quot;&gt;)&lt;/span&gt;" style="text;strokeColor=none;fillColor=none;align=left;verticalAlign=top;spacingLeft=4;spacingRight=4;overflow=hidden;rotatable=0;points=[[0,0.5],[1,0.5]];portConstraint=eastwest;whiteSpace=wrap;html=1;" vertex="1" parent="ajc7hb3r5Duzxjk8FhJC-62">
          <mxGeometry y="78" width="400" height="26" as="geometry" />
        </mxCell>
        <mxCell id="ajc7hb3r5Duzxjk8FhJC-71" value="+&lt;span style=&quot;color: rgb(210, 168, 255); background-color: rgb(13, 17, 23); font-family: &amp;quot;Droid Sans Mono&amp;quot;, &amp;quot;monospace&amp;quot;, monospace; font-size: 14px; white-space: pre;&quot;&gt;authenticateUser&lt;/span&gt;&lt;span style=&quot;background-color: transparent; color: light-dark(rgb(0, 0, 0), rgb(255, 255, 255));&quot;&gt;(&lt;/span&gt;&lt;span style=&quot;background-color: rgb(13, 17, 23); color: rgb(201, 209, 217); font-family: &amp;quot;Droid Sans Mono&amp;quot;, &amp;quot;monospace&amp;quot;, monospace; font-size: 14px; white-space: pre;&quot;&gt;(&lt;/span&gt;&lt;span style=&quot;background-color: rgb(13, 17, 23); color: rgb(201, 209, 217); font-family: &amp;quot;Droid Sans Mono&amp;quot;, &amp;quot;monospace&amp;quot;, monospace; font-size: 14px; white-space: pre;&quot;&gt;)&lt;/span&gt;" style="text;strokeColor=none;fillColor=none;align=left;verticalAlign=top;spacingLeft=4;spacingRight=4;overflow=hidden;rotatable=0;points=[[0,0.5],[1,0.5]];portConstraint=eastwest;whiteSpace=wrap;html=1;" vertex="1" parent="ajc7hb3r5Duzxjk8FhJC-62">
          <mxGeometry y="104" width="400" height="26" as="geometry" />
        </mxCell>
        <mxCell id="ajc7hb3r5Duzxjk8FhJC-72" value="+&lt;span style=&quot;color: rgb(210, 168, 255); background-color: rgb(13, 17, 23); font-family: &amp;quot;Droid Sans Mono&amp;quot;, &amp;quot;monospace&amp;quot;, monospace; font-size: 14px; white-space: pre;&quot;&gt;checkPermissions&lt;/span&gt;&lt;span style=&quot;background-color: transparent; color: light-dark(rgb(0, 0, 0), rgb(255, 255, 255));&quot;&gt;(&lt;/span&gt;&lt;span style=&quot;background-color: rgb(13, 17, 23); color: rgb(201, 209, 217); font-family: &amp;quot;Droid Sans Mono&amp;quot;, &amp;quot;monospace&amp;quot;, monospace; font-size: 14px; white-space: pre;&quot;&gt;(&lt;/span&gt;&lt;span style=&quot;background-color: rgb(13, 17, 23); color: rgb(201, 209, 217); font-family: &amp;quot;Droid Sans Mono&amp;quot;, &amp;quot;monospace&amp;quot;, monospace; font-size: 14px; white-space: pre;&quot;&gt;)&lt;/span&gt;" style="text;strokeColor=none;fillColor=none;align=left;verticalAlign=top;spacingLeft=4;spacingRight=4;overflow=hidden;rotatable=0;points=[[0,0.5],[1,0.5]];portConstraint=eastwest;whiteSpace=wrap;html=1;" vertex="1" parent="ajc7hb3r5Duzxjk8FhJC-62">
          <mxGeometry y="130" width="400" height="26" as="geometry" />
        </mxCell>
        <mxCell id="ajc7hb3r5Duzxjk8FhJC-73" value="+&lt;span style=&quot;color: rgb(210, 168, 255); background-color: rgb(13, 17, 23); font-family: &amp;quot;Droid Sans Mono&amp;quot;, &amp;quot;monospace&amp;quot;, monospace; font-size: 14px; white-space: pre;&quot;&gt;bindAndValidateData&lt;/span&gt;&lt;span style=&quot;background-color: transparent; color: light-dark(rgb(0, 0, 0), rgb(255, 255, 255));&quot;&gt;(&lt;/span&gt;&lt;span style=&quot;background-color: rgb(13, 17, 23); color: rgb(201, 209, 217); font-family: &amp;quot;Droid Sans Mono&amp;quot;, &amp;quot;monospace&amp;quot;, monospace; font-size: 14px; white-space: pre;&quot;&gt;(&lt;/span&gt;&lt;span style=&quot;background-color: rgb(13, 17, 23); color: rgb(201, 209, 217); font-family: &amp;quot;Droid Sans Mono&amp;quot;, &amp;quot;monospace&amp;quot;, monospace; font-size: 14px; white-space: pre;&quot;&gt;)&lt;/span&gt;" style="text;strokeColor=none;fillColor=none;align=left;verticalAlign=top;spacingLeft=4;spacingRight=4;overflow=hidden;rotatable=0;points=[[0,0.5],[1,0.5]];portConstraint=eastwest;whiteSpace=wrap;html=1;" vertex="1" parent="ajc7hb3r5Duzxjk8FhJC-62">
          <mxGeometry y="156" width="400" height="26" as="geometry" />
        </mxCell>
        <mxCell id="ajc7hb3r5Duzxjk8FhJC-74" value="+&lt;span style=&quot;color: rgb(210, 168, 255); background-color: light-dark(rgb(13, 17, 23), rgb(220, 223, 229)); font-family: &amp;quot;Droid Sans Mono&amp;quot;, &amp;quot;monospace&amp;quot;, monospace; font-size: 14px; white-space: pre;&quot;&gt;applyFilterBackends&lt;/span&gt;&lt;span style=&quot;background-color: rgb(13, 17, 23); color: rgb(201, 209, 217); font-family: &amp;quot;Droid Sans Mono&amp;quot;, &amp;quot;monospace&amp;quot;, monospace; font-size: 14px; white-space: pre;&quot;&gt;(&lt;/span&gt;&lt;span style=&quot;background-color: rgb(13, 17, 23); color: rgb(201, 209, 217); font-family: &amp;quot;Droid Sans Mono&amp;quot;, &amp;quot;monospace&amp;quot;, monospace; font-size: 14px; white-space: pre;&quot;&gt;)&lt;/span&gt;" style="text;strokeColor=none;fillColor=none;align=left;verticalAlign=top;spacingLeft=4;spacingRight=4;overflow=hidden;rotatable=0;points=[[0,0.5],[1,0.5]];portConstraint=eastwest;whiteSpace=wrap;html=1;" vertex="1" parent="ajc7hb3r5Duzxjk8FhJC-62">
          <mxGeometry y="182" width="400" height="26" as="geometry" />
        </mxCell>
        <mxCell id="ajc7hb3r5Duzxjk8FhJC-78" style="edgeStyle=orthogonalEdgeStyle;rounded=0;orthogonalLoop=1;jettySize=auto;html=1;entryX=0;entryY=0.5;entryDx=0;entryDy=0;" edge="1" parent="1" source="ajc7hb3r5Duzxjk8FhJC-76" target="ajc7hb3r5Duzxjk8FhJC-58">
          <mxGeometry relative="1" as="geometry" />
        </mxCell>
        <mxCell id="ajc7hb3r5Duzxjk8FhJC-76" value="Controller Interface" style="html=1;whiteSpace=wrap;" vertex="1" parent="1">
          <mxGeometry x="40" y="-60" width="110" height="50" as="geometry" />
        </mxCell>
        <mxCell id="ajc7hb3r5Duzxjk8FhJC-81" style="edgeStyle=orthogonalEdgeStyle;rounded=0;orthogonalLoop=1;jettySize=auto;html=1;entryX=1;entryY=0.5;entryDx=0;entryDy=0;fillColor=#f8cecc;strokeColor=#FF3333;" edge="1" parent="1" source="ajc7hb3r5Duzxjk8FhJC-71" target="ajc7hb3r5Duzxjk8FhJC-17">
          <mxGeometry relative="1" as="geometry" />
        </mxCell>
        <mxCell id="ajc7hb3r5Duzxjk8FhJC-83" value="&lt;div style=&quot;color: rgb(201, 209, 217); background-color: rgb(13, 17, 23); font-family: &amp;quot;Droid Sans Mono&amp;quot;, &amp;quot;monospace&amp;quot;, monospace; font-size: 14px; line-height: 19px; white-space: pre;&quot;&gt;&lt;span style=&quot;color: #fdac54;&quot;&gt;Permission&lt;/span&gt; &lt;span style=&quot;color: #ec8e2c;&quot;&gt;func&lt;/span&gt;(&lt;span style=&quot;color: #ec8e2c;&quot;&gt;*&lt;/span&gt;&lt;span style=&quot;color: #fdac54;&quot;&gt;model&lt;/span&gt;.&lt;span style=&quot;color: #fdac54;&quot;&gt;User&lt;/span&gt;, []&lt;span style=&quot;color: #fdac54;&quot;&gt;dto&lt;/span&gt;.&lt;span style=&quot;color: #fdac54;&quot;&gt;UserPermission&lt;/span&gt;, &lt;span style=&quot;color: #ec8e2c;&quot;&gt;*&lt;/span&gt;&lt;span style=&quot;color: #fdac54;&quot;&gt;gin&lt;/span&gt;.&lt;span style=&quot;color: #fdac54;&quot;&gt;Context&lt;/span&gt;) (&lt;span style=&quot;color: #ec8e2c;&quot;&gt;bool&lt;/span&gt;, &lt;span style=&quot;color: #ec8e2c;&quot;&gt;error&lt;/span&gt;)&lt;/div&gt;" style="html=1;whiteSpace=wrap;" vertex="1" parent="1">
          <mxGeometry x="1150" y="-300" width="700" height="50" as="geometry" />
        </mxCell>
        <mxCell id="ajc7hb3r5Duzxjk8FhJC-85" value="&lt;div style=&quot;color: rgb(201, 209, 217); background-color: rgb(13, 17, 23); font-family: &amp;quot;Droid Sans Mono&amp;quot;, &amp;quot;monospace&amp;quot;, monospace; font-size: 14px; line-height: 19px; white-space: pre;&quot;&gt;&lt;span style=&quot;color: #ec8e2c;&quot;&gt;type&lt;/span&gt; &lt;span style=&quot;color: #fdac54;&quot;&gt;QuerySet&lt;/span&gt; &lt;span style=&quot;color: #ec8e2c;&quot;&gt;=&lt;/span&gt; &lt;span style=&quot;color: #ec8e2c;&quot;&gt;func&lt;/span&gt;(&lt;span style=&quot;color: #fdac54;&quot;&gt;db&lt;/span&gt; &lt;span style=&quot;color: #ec8e2c;&quot;&gt;*&lt;/span&gt;&lt;span style=&quot;color: #fdac54;&quot;&gt;gorm&lt;/span&gt;.&lt;span style=&quot;color: #fdac54;&quot;&gt;DB&lt;/span&gt;) &lt;span style=&quot;color: #ec8e2c;&quot;&gt;*&lt;/span&gt;&lt;span style=&quot;color: #fdac54;&quot;&gt;gorm&lt;/span&gt;.&lt;span style=&quot;color: #fdac54;&quot;&gt;DB&lt;/span&gt;&lt;/div&gt;" style="html=1;whiteSpace=wrap;" vertex="1" parent="1">
          <mxGeometry x="1150" y="-230" width="400" height="50" as="geometry" />
        </mxCell>
        <mxCell id="ajc7hb3r5Duzxjk8FhJC-88" value="&lt;div style=&quot;color: rgb(201, 209, 217); background-color: rgb(13, 17, 23); font-family: &amp;quot;Droid Sans Mono&amp;quot;, &amp;quot;monospace&amp;quot;, monospace; font-size: 14px; line-height: 19px; white-space: pre;&quot;&gt;&lt;span style=&quot;color: #ec8e2c;&quot;&gt;type&lt;/span&gt; &lt;span style=&quot;color: #fdac54;&quot;&gt;FilterBackend&lt;/span&gt; &lt;span style=&quot;color: #ec8e2c;&quot;&gt;func&lt;/span&gt;(&lt;span style=&quot;color: #ec8e2c;&quot;&gt;*&lt;/span&gt;&lt;span style=&quot;color: #fdac54;&quot;&gt;model&lt;/span&gt;.&lt;span style=&quot;color: #fdac54;&quot;&gt;User&lt;/span&gt;, []&lt;span style=&quot;color: #fdac54;&quot;&gt;dto&lt;/span&gt;.&lt;span style=&quot;color: #fdac54;&quot;&gt;UserPermission&lt;/span&gt;, &lt;span style=&quot;color: #ec8e2c;&quot;&gt;*&lt;/span&gt;&lt;span style=&quot;color: #fdac54;&quot;&gt;gin&lt;/span&gt;.&lt;span style=&quot;color: #fdac54;&quot;&gt;Context&lt;/span&gt;) &lt;span style=&quot;color: #fdac54;&quot;&gt;QuerySet&lt;/span&gt;&lt;/div&gt;" style="html=1;whiteSpace=wrap;" vertex="1" parent="1">
          <mxGeometry x="1150" y="-160" width="720" height="50" as="geometry" />
        </mxCell>
        <mxCell id="ajc7hb3r5Duzxjk8FhJC-89" style="edgeStyle=orthogonalEdgeStyle;rounded=0;orthogonalLoop=1;jettySize=auto;html=1;entryX=0;entryY=0.5;entryDx=0;entryDy=0;" edge="1" parent="1" source="ajc7hb3r5Duzxjk8FhJC-58" target="ajc7hb3r5Duzxjk8FhJC-83">
          <mxGeometry relative="1" as="geometry" />
        </mxCell>
        <mxCell id="ajc7hb3r5Duzxjk8FhJC-90" style="edgeStyle=orthogonalEdgeStyle;rounded=0;orthogonalLoop=1;jettySize=auto;html=1;entryX=0;entryY=0.5;entryDx=0;entryDy=0;" edge="1" parent="1" source="ajc7hb3r5Duzxjk8FhJC-59" target="ajc7hb3r5Duzxjk8FhJC-88">
          <mxGeometry relative="1" as="geometry" />
        </mxCell>
        <mxCell id="ajc7hb3r5Duzxjk8FhJC-99" style="edgeStyle=orthogonalEdgeStyle;rounded=0;orthogonalLoop=1;jettySize=auto;html=1;entryX=0;entryY=0.5;entryDx=0;entryDy=0;" edge="1" parent="1" source="ajc7hb3r5Duzxjk8FhJC-92" target="ajc7hb3r5Duzxjk8FhJC-97">
          <mxGeometry relative="1" as="geometry" />
        </mxCell>
        <mxCell id="ajc7hb3r5Duzxjk8FhJC-92" value="payload" style="text;align=center;fontStyle=1;verticalAlign=middle;spacingLeft=3;spacingRight=3;strokeColor=none;rotatable=0;points=[[0,0.5],[1,0.5]];portConstraint=eastwest;html=1;" vertex="1" parent="1">
          <mxGeometry x="570" y="499" width="80" height="26" as="geometry" />
        </mxCell>
        <mxCell id="ajc7hb3r5Duzxjk8FhJC-94" style="edgeStyle=orthogonalEdgeStyle;rounded=0;orthogonalLoop=1;jettySize=auto;html=1;entryX=0;entryY=0.5;entryDx=0;entryDy=0;" edge="1" parent="1" source="ajc7hb3r5Duzxjk8FhJC-17" target="ajc7hb3r5Duzxjk8FhJC-92">
          <mxGeometry relative="1" as="geometry" />
        </mxCell>
        <mxCell id="ajc7hb3r5Duzxjk8FhJC-98" style="edgeStyle=orthogonalEdgeStyle;rounded=0;orthogonalLoop=1;jettySize=auto;html=1;entryX=0;entryY=0.5;entryDx=0;entryDy=0;" edge="1" parent="1" source="ajc7hb3r5Duzxjk8FhJC-97" target="ajc7hb3r5Duzxjk8FhJC-50">
          <mxGeometry relative="1" as="geometry" />
        </mxCell>
        <mxCell id="ajc7hb3r5Duzxjk8FhJC-97" value="veryfyToken(token)" style="text;align=center;fontStyle=1;verticalAlign=middle;spacingLeft=3;spacingRight=3;strokeColor=none;rotatable=0;points=[[0,0.5],[1,0.5]];portConstraint=eastwest;html=1;" vertex="1" parent="1">
          <mxGeometry x="800" y="499" width="80" height="26" as="geometry" />
        </mxCell>
      </root>
    </mxGraphModel>
  </diagram>
</mxfile>
